# xmcd CD database file
#
# Track frame offsets:
#	150
#	12017
#	26426
#	46655
#	60381
#	77737
#	90405
#	112127
#	123165
#	134233
#	163686
#	180612
#	197751
#	209826
#	223523
#	239877
#	262308
#	282735
#	300154
#	318661
#
# Disc length: 4439 seconds
#
# Revision: 1
# Processed by: cddbd v1.5.2PL0 Copyright (c) Steve Scherf et al.
# Submitted via: CDex 1.51
#
DISCID=2b115514
DTITLE=Dixieland - Black Jass
DYEAR=1900
DGENRE=Jazz
TTITLE0=Canal Street
TTITLE1=Egyptian Fantasy
TTITLE2=Cushion Foot Stomp
TTITLE3=Who'll Chop Your Suey When I'm Gone
TTITLE4=Tiger Rag
TTITLE5=Immigration Blues
TTITLE6=Moulin À Cafe
TTITLE7=Blues My Naughty Sweetie
TTITLE8=Georgia Swing
TTITLE9=Everybody Loves My Baby
TTITLE10=What You Want Me To Do
TTITLE11=Worn Out Blues
TTITLE12=Frankie And Johnnie
TTITLE13=Willie The Weeper
TTITLE14=Red River Blues
TTITLE15=Muskrat Ramble
TTITLE16=Play That Thing
TTITLE17=The Headhunter's Dream
TTITLE18=Royal Garden Blues
TTITLE19=Spanish Shawl
EXTD=
EXTT0=
EXTT1=
EXTT2=
EXTT3=
EXTT4=
EXTT5=
EXTT6=
EXTT7=
EXTT8=
EXTT9=
EXTT10=
EXTT11=
EXTT12=
EXTT13=
EXTT14=
EXTT15=
EXTT16=
EXTT17=
EXTT18=
EXTT19=
PLAYORDER=
